<?xml version="1.0" encoding="UTF-8" standalone="no"?>
<!DOCTYPE svg PUBLIC "-//W3C//DTD SVG 1.1//EN"
 "http://www.w3.org/Graphics/SVG/1.1/DTD/svg11.dtd">
 -->
<!-- Title: attack_tree_002 Pages: 1 -->
<svg width="1284pt" height="244pt"
 viewBox="0.00 0.00 1284.00 244.00" xmlns="http://www.w3.org/2000/svg" xmlns:xlink="http://www.w3.org/1999/xlink">
<g id="graph0" class="graph" transform="scale(1 1) rotate(0) translate(4 240)">
<title>attack_tree_002</title>
<polygon fill="white" stroke="none" points="-4,4 -4,-240 1280.38,-240 1280.38,4 -4,4"/>
<text xml:space="preserve" text-anchor="middle" x="638.19" y="-218.7" font-family="Times,serif" font-size="14.00">TM&#45;20260904&#45;001 ATTACK&#45;002: a false or inflated assurance claim about this commit reaches consumers</text>
<!-- goal -->
<g id="node1" class="node">
<title>goal</title>
<polygon fill="lightgrey" stroke="black" points="763.62,-211.5 494.88,-211.5 494.88,-170.5 763.62,-170.5 763.62,-211.5"/>
<text xml:space="preserve" text-anchor="middle" x="629.25" y="-194.2" font-family="Times,serif" font-size="14.00">Goal: consumer treats 1ab289c as verified,</text>
<text xml:space="preserve" text-anchor="middle" x="629.25" y="-177.7" font-family="Times,serif" font-size="14.00">hardware&#45;validated or independently reviewed</text>
</g>
<!-- b1 -->
<g id="node2" class="node">
<title>b1</title>
<polygon fill="none" stroke="black" points="214.38,-134.5 52.12,-134.5 52.12,-77 214.38,-77 214.38,-134.5"/>
<text xml:space="preserve" text-anchor="middle" x="133.25" y="-117.2" font-family="Times,serif" font-size="14.00">1. Fabricate self&#45;consistent</text>
<text xml:space="preserve" text-anchor="middle" x="133.25" y="-100.7" font-family="Times,serif" font-size="14.00">evidence bundle</text>
<text xml:space="preserve" text-anchor="middle" x="133.25" y="-84.2" font-family="Times,serif" font-size="14.00">THREAT&#45;013</text>
</g>
<!-- b1&#45;&gt;goal -->
<g id="edge1" class="edge">
<title>b1&#45;&gt;goal</title>
<path fill="none" stroke="black" d="M214.71,-128.69C223.63,-130.79 232.61,-132.78 241.25,-134.5 320.75,-150.35 410.29,-163.47 483.3,-172.96"/>
<polygon fill="black" stroke="black" points="482.54,-176.39 492.91,-174.2 483.44,-169.45 482.54,-176.39"/>
</g>
<!-- c1 -->
<g id="node3" class="node">
<title>c1</title>
<polygon fill="none" stroke="black" points="182.5,-41 0,-41 0,0 188.5,0 188.5,-35 182.5,-41"/>
<polyline fill="none" stroke="black" points="182.5,-41 182.5,-35"/>
<polyline fill="none" stroke="black" points="188.5,-35 182.5,-35"/>
<text xml:space="preserve" text-anchor="middle" x="94.25" y="-23.7" font-family="Times,serif" font-size="14.00">Partial: CONTROL&#45;010 detects</text>
<text xml:space="preserve" text-anchor="middle" x="94.25" y="-7.2" font-family="Times,serif" font-size="14.00">inconsistency only</text>
</g>
<!-- c1&#45;&gt;b1 -->
<g id="edge7" class="edge">
<title>c1&#45;&gt;b1</title>
<path fill="none" stroke="black" stroke-dasharray="5,2" d="M103.49,-41.23C108.45,-51.81 114.64,-65.02 120.09,-76.66"/>
</g>
<!-- b2 -->
<g id="node4" class="node">
<title>b2</title>
<polygon fill="none" stroke="black" points="398.25,-134.5 250.25,-134.5 250.25,-77 398.25,-77 398.25,-134.5"/>
<text xml:space="preserve" text-anchor="middle" x="324.25" y="-117.2" font-family="Times,serif" font-size="14.00">2. Compromise build or</text>
<text xml:space="preserve" text-anchor="middle" x="324.25" y="-100.7" font-family="Times,serif" font-size="14.00">platform inputs</text>
<text xml:space="preserve" text-anchor="middle" x="324.25" y="-84.2" font-family="Times,serif" font-size="14.00">THREAT&#45;014</text>
</g>
<!-- b2&#45;&gt;goal -->
<g id="edge2" class="edge">
<title>b2&#45;&gt;goal</title>
<path fill="none" stroke="black" d="M398.47,-127.01C442.79,-139.11 499.21,-154.51 545.18,-167.05"/>
<polygon fill="black" stroke="black" points="543.99,-170.36 554.56,-169.61 545.83,-163.6 543.99,-170.36"/>
</g>
<!-- c2 -->
<g id="node5" class="node">
<title>c2</title>
<polygon fill="none" stroke="black" points="396.25,-41 206.25,-41 206.25,0 402.25,0 402.25,-35 396.25,-41"/>
<polyline fill="none" stroke="black" points="396.25,-41 396.25,-35"/>
<polyline fill="none" stroke="black" points="402.25,-35 396.25,-35"/>
<text xml:space="preserve" text-anchor="middle" x="304.25" y="-23.7" font-family="Times,serif" font-size="14.00">Partial: CONTROL&#45;014 pinning,</text>
<text xml:space="preserve" text-anchor="middle" x="304.25" y="-7.2" font-family="Times,serif" font-size="14.00">two toolchains</text>
</g>
<!-- c2&#45;&gt;b2 -->
<g id="edge8" class="edge">
<title>c2&#45;&gt;b2</title>
<path fill="none" stroke="black" stroke-dasharray="5,2" d="M308.99,-41.23C311.53,-51.81 314.71,-65.02 317.5,-76.66"/>
</g>
<!-- b3 -->
<g id="node6" class="node">
<title>b3</title>
<polygon fill="none" stroke="black" points="609.12,-134.5 439.38,-134.5 439.38,-77 609.12,-77 609.12,-134.5"/>
<text xml:space="preserve" text-anchor="middle" x="524.25" y="-117.2" font-family="Times,serif" font-size="14.00">3. Structurally valid gate</text>
<text xml:space="preserve" text-anchor="middle" x="524.25" y="-100.7" font-family="Times,serif" font-size="14.00">approval without the human</text>
<text xml:space="preserve" text-anchor="middle" x="524.25" y="-84.2" font-family="Times,serif" font-size="14.00">THREAT&#45;015</text>
</g>
<!-- b3&#45;&gt;goal -->
<g id="edge3" class="edge">
<title>b3&#45;&gt;goal</title>
<path fill="none" stroke="black" d="M559.8,-134.93C571.35,-144.09 584.12,-154.22 595.53,-163.27"/>
<polygon fill="black" stroke="black" points="593.15,-165.84 603.16,-169.31 597.49,-160.36 593.15,-165.84"/>
</g>
<!-- c3 -->
<g id="node7" class="node">
<title>c3</title>
<polygon fill="none" stroke="black" points="616.25,-41 420.25,-41 420.25,0 622.25,0 622.25,-35 616.25,-41"/>
<polyline fill="none" stroke="black" points="616.25,-41 616.25,-35"/>
<polyline fill="none" stroke="black" points="622.25,-35 616.25,-35"/>
<text xml:space="preserve" text-anchor="middle" x="521.25" y="-23.7" font-family="Times,serif" font-size="14.00">Partial: CONTROL&#45;012 structure;</text>
<text xml:space="preserve" text-anchor="middle" x="521.25" y="-7.2" font-family="Times,serif" font-size="14.00">gate currently blocked</text>
</g>
<!-- c3&#45;&gt;b3 -->
<g id="edge9" class="edge">
<title>c3&#45;&gt;b3</title>
<path fill="none" stroke="black" stroke-dasharray="5,2" d="M521.96,-41.23C522.34,-51.81 522.82,-65.02 523.24,-76.66"/>
</g>
<!-- b4 -->
<g id="node8" class="node">
<title>b4</title>
<polygon fill="none" stroke="black" points="834.5,-134.5 634,-134.5 634,-77 834.5,-77 834.5,-134.5"/>
<text xml:space="preserve" text-anchor="middle" x="734.25" y="-117.2" font-family="Times,serif" font-size="14.00">4. Cite historical review packages</text>
<text xml:space="preserve" text-anchor="middle" x="734.25" y="-100.7" font-family="Times,serif" font-size="14.00">as review of this commit</text>
<text xml:space="preserve" text-anchor="middle" x="734.25" y="-84.2" font-family="Times,serif" font-size="14.00">THREAT&#45;016</text>
</g>
<!-- b4&#45;&gt;goal -->
<g id="edge4" class="edge">
<title>b4&#45;&gt;goal</title>
<path fill="none" stroke="black" d="M698.7,-134.93C687.15,-144.09 674.38,-154.22 662.97,-163.27"/>
<polygon fill="black" stroke="black" points="661.01,-160.36 655.34,-169.31 665.35,-165.84 661.01,-160.36"/>
</g>
<!-- c4 -->
<g id="node9" class="node">
<title>c4</title>
<polygon fill="none" stroke="black" points="830.25,-38.5 640.25,-38.5 640.25,-2.5 836.25,-2.5 836.25,-32.5 830.25,-38.5"/>
<polyline fill="none" stroke="black" points="830.25,-38.5 830.25,-32.5"/>
<polyline fill="none" stroke="black" points="836.25,-32.5 830.25,-32.5"/>
<text xml:space="preserve" text-anchor="middle" x="738.25" y="-15.45" font-family="Times,serif" font-size="14.00">Partial: CONTROL&#45;013 wording</text>
</g>
<!-- c4&#45;&gt;b4 -->
<g id="edge10" class="edge">
<title>c4&#45;&gt;b4</title>
<path fill="none" stroke="black" stroke-dasharray="5,2" d="M737.42,-38.75C736.89,-49.7 736.2,-64.13 735.6,-76.71"/>
</g>
<!-- b5 -->
<g id="node10" class="node">
<title>b5</title>
<polygon fill="none" stroke="black" points="1022.75,-134.5 865.75,-134.5 865.75,-77 1022.75,-77 1022.75,-134.5"/>
<text xml:space="preserve" text-anchor="middle" x="944.25" y="-117.2" font-family="Times,serif" font-size="14.00">5. Attribute later CBMC /</text>
<text xml:space="preserve" text-anchor="middle" x="944.25" y="-100.7" font-family="Times,serif" font-size="14.00">eight&#45;image lineage</text>
<text xml:space="preserve" text-anchor="middle" x="944.25" y="-84.2" font-family="Times,serif" font-size="14.00">THREAT&#45;016</text>
</g>
<!-- b5&#45;&gt;goal -->
<g id="edge5" class="edge">
<title>b5&#45;&gt;goal</title>
<path fill="none" stroke="black" d="M865.43,-128.52C857.94,-130.56 850.45,-132.58 843.25,-134.5 802.15,-145.47 756.53,-157.35 718,-167.29"/>
<polygon fill="black" stroke="black" points="717.61,-163.77 708.8,-169.66 719.36,-170.55 717.61,-163.77"/>
</g>
<!-- c5 -->
<g id="node11" class="node">
<title>c5</title>
<polygon fill="none" stroke="black" points="1048.12,-41 854.38,-41 854.38,0 1054.12,0 1054.12,-35 1048.12,-41"/>
<polyline fill="none" stroke="black" points="1048.12,-41 1048.12,-35"/>
<polyline fill="none" stroke="black" points="1054.12,-35 1048.12,-35"/>
<text xml:space="preserve" text-anchor="middle" x="954.25" y="-23.7" font-family="Times,serif" font-size="14.00">Partial: CONTROL&#45;013 wording;</text>
<text xml:space="preserve" text-anchor="middle" x="954.25" y="-7.2" font-family="Times,serif" font-size="14.00">observed hazard E0004</text>
</g>
<!-- c5&#45;&gt;b5 -->
<g id="edge11" class="edge">
<title>c5&#45;&gt;b5</title>
<path fill="none" stroke="black" stroke-dasharray="5,2" d="M951.88,-41.23C950.61,-51.81 949.02,-65.02 947.62,-76.66"/>
</g>
<!-- b6 -->
<g id="node12" class="node">
<title>b6</title>
<polygon fill="none" stroke="black" points="1254.5,-134.5 1060,-134.5 1060,-77 1254.5,-77 1254.5,-134.5"/>
<text xml:space="preserve" text-anchor="middle" x="1157.25" y="-117.2" font-family="Times,serif" font-size="14.00">6. Bypass the publication gate:</text>
<text xml:space="preserve" text-anchor="middle" x="1157.25" y="-100.7" font-family="Times,serif" font-size="14.00">direct distribution, preview URL</text>
<text xml:space="preserve" text-anchor="middle" x="1157.25" y="-84.2" font-family="Times,serif" font-size="14.00">THREAT&#45;018, THREAT&#45;015</text>
</g>
<!-- b6&#45;&gt;goal -->
<g id="edge6" class="edge">
<title>b6&#45;&gt;goal</title>
<path fill="none" stroke="black" d="M1059.82,-129.18C1050.52,-131.08 1041.22,-132.89 1032.25,-134.5 947.44,-149.73 851.94,-163.05 775.2,-172.82"/>
<polygon fill="black" stroke="black" points="775,-169.31 765.52,-174.04 775.88,-176.26 775,-169.31"/>
</g>
<!-- c6 -->
<g id="node13" class="node">
<title>c6</title>
<polygon fill="none" stroke="black" points="1270.38,-41 1072.12,-41 1072.12,0 1276.38,0 1276.38,-35 1270.38,-41"/>
<polyline fill="none" stroke="black" points="1270.38,-41 1270.38,-35"/>
<polyline fill="none" stroke="black" points="1276.38,-35 1270.38,-35"/>
<text xml:space="preserve" text-anchor="middle" x="1174.25" y="-23.7" font-family="Times,serif" font-size="14.00">No target control;</text>
<text xml:space="preserve" text-anchor="middle" x="1174.25" y="-7.2" font-family="Times,serif" font-size="14.00">gate governs maintained path only</text>
</g>
<!-- c6&#45;&gt;b6 -->
<g id="edge12" class="edge">
<title>c6&#45;&gt;b6</title>
<path fill="none" stroke="black" stroke-dasharray="5,2" d="M1170.22,-41.23C1168.06,-51.81 1165.36,-65.02 1162.99,-76.66"/>
</g>
</g>
</svg>
